<svg xmlns="http://www.w3.org/2000/svg" width="150" height="150" fill="none" viewBox="0 0 3000 2000"><script xmlns=""/><script xmlns=""/><script xmlns=""/>
    <g clip-path="url(#a)">
        <circle cx="1329.78" cy="799.783" r="623.283" fill="#FAEBD7" fill-opacity=".94" stroke="#C72525" stroke-width="25"/>
        <path stroke="#C72525" stroke-width="25" d="M1699.01 799.613c0 173.689-41.4 330.327-107.69 443.117-66.45 113.08-156.45 180-253.36 180-96.9 0-186.9-66.92-253.36-180-66.28-112.79-107.682-269.428-107.682-443.117 0-173.688 41.402-330.324 107.682-443.113 66.46-113.079 156.46-180 253.36-180 96.91 0 186.91 66.921 253.36 180 66.29 112.789 107.69 269.425 107.69 443.113ZM1333.46 164v1255.44M879.281 370.867H1772.4M723.09 644.999h1213.38M723.09 929.038h1213.38M855.414 1210.8h948.466"/>
        <path fill="#DE2B2B" fill-opacity=".96" fill-rule="evenodd" d="M1947.58 660.75c38.71 2.695 70.45 7.566 94.7 14.114 17.14 4.626 27.99 9.428 34.24 13.164-3.26 5.912-9.9 14.719-22.08 26.061-27.06 25.188-72.53 54.689-135.71 85.943-125.49 62.081-309 125.318-520.55 173.769-211.55 48.449-407.34 72.089-552.127 71.909-72.892-.09-129.404-6.24-167.457-16.51-17.134-4.63-27.989-9.43-34.234-13.17 3.256-5.91 9.892-14.72 22.077-26.057 11.813-10.993 27.13-22.809 45.896-35.233-2.45-15.403-6.78-37.687-12.305-64.649-84.991 51.191-129.269 100.464-117.018 139.999 30.652 98.9 403.566 99.36 832.928 1.02 429.36-98.335 752.58-258.23 721.93-357.133-13.1-42.267-88.71-66.555-204.52-72.836l6.54 16.623 7.69 42.986Zm131.23 21.966s-.01.033-.02.101c.01-.066.01-.1.02-.101ZM639.302 1012.41a.35.35 0 0 1 .074.08c-.052-.06-.075-.08-.074-.08Zm2.771 8.94a.534.534 0 0 1 .018-.1 1 1 0 0 1-.018.1ZM2081.5 691.577c.05.053.08.079.08.08-.01 0-.03-.027-.08-.08Z" clip-rule="evenodd"/>
        <path fill="#FFF3E3" fill-opacity=".93" stroke="#8D1212" stroke-width="50" d="M1800.1 621.971c0 191.326-155.1 346.425-346.42 346.425-191.33 0-346.43-155.099-346.43-346.425 0-191.325 155.1-346.425 346.43-346.425 191.32 0 346.42 155.1 346.42 346.425Z"/>
        <path fill="#8D1212" stroke="#8D1212" d="m1804.32 1483.02-222.81-525.909 43.31-23.872 284.72 497.221-105.22 52.56Z"/>
        <mask id="b" width="205" height="363" x="1355" y="422" fill="#000" maskUnits="userSpaceOnUse">
            <path fill="#fff" d="M1355 422h205v363h-205z"/>
            <path d="M1451.66 683.148h-17.57c0-23.828 4.1-45.898 12.3-66.21 3.91-9.766 14.26-27.735 31.06-53.907 16.4-26.172 24.6-51.172 24.6-75 0-3.125-.19-6.25-.58-9.375-2.35-26.562-18.95-39.844-49.81-39.844-10.15 0-18.36 2.149-24.61 6.446-7.03 5.078-11.52 16.797-13.47 35.156-.78 6.25-1.56 10.938-2.35 14.063-3.12 14.062-11.91 21.093-26.36 21.093-18.36-.39-27.93-10.742-28.71-31.054.39-12.5 5.86-23.828 16.4-33.985 19.14-17.969 47.27-26.953 84.38-26.953 15.62 0 30.08 1.758 43.36 5.274 38.67 10.937 58 34.57 58 70.898 0 10.156-2.14 19.922-6.44 29.297-5.47 11.719-18.95 27.148-40.43 46.289-8.98 7.812-15.63 13.867-19.92 18.164-26.56 26.562-39.85 56.445-39.85 89.648Zm21.1 70.899c0 4.297-.98 8.594-2.93 12.891-5.47 11.328-14.45 16.992-26.95 16.992-4.3 0-8.6-.977-12.9-2.93-11.32-5.469-16.99-14.453-16.99-26.953 0-4.297.98-8.594 2.93-12.891 5.08-11.718 14.06-17.578 26.96-17.578 4.29 0 8.39.977 12.3 2.93 11.72 5.469 17.58 14.648 17.58 27.539Z"/>
        </mask>
        <path fill="#8D1212" d="M1451.66 683.148h-17.57c0-23.828 4.1-45.898 12.3-66.21 3.91-9.766 14.26-27.735 31.06-53.907 16.4-26.172 24.6-51.172 24.6-75 0-3.125-.19-6.25-.58-9.375-2.35-26.562-18.95-39.844-49.81-39.844-10.15 0-18.36 2.149-24.61 6.446-7.03 5.078-11.52 16.797-13.47 35.156-.78 6.25-1.56 10.938-2.35 14.063-3.12 14.062-11.91 21.093-26.36 21.093-18.36-.39-27.93-10.742-28.71-31.054.39-12.5 5.86-23.828 16.4-33.985 19.14-17.969 47.27-26.953 84.38-26.953 15.62 0 30.08 1.758 43.36 5.274 38.67 10.937 58 34.57 58 70.898 0 10.156-2.14 19.922-6.44 29.297-5.47 11.719-18.95 27.148-40.43 46.289-8.98 7.812-15.63 13.867-19.92 18.164-26.56 26.562-39.85 56.445-39.85 89.648Zm21.1 70.899c0 4.297-.98 8.594-2.93 12.891-5.47 11.328-14.45 16.992-26.95 16.992-4.3 0-8.6-.977-12.9-2.93-11.32-5.469-16.99-14.453-16.99-26.953 0-4.297.98-8.594 2.93-12.891 5.08-11.718 14.06-17.578 26.96-17.578 4.29 0 8.39.977 12.3 2.93 11.72 5.469 17.58 14.648 17.58 27.539Z"/>
        <path fill="#8D1212" d="M1451.66 683.148v1h1v-1h-1Zm-17.57 0h-1v1h1v-1Zm12.3-66.21.93.374v-.003l-.93-.371Zm31.06-53.907.84.54v-.009l-.84-.531Zm24.02-84.375-1 .088v.018l.01.018.99-.124Zm-74.42-33.398-.56-.824-.01.006-.01.007.58.811Zm-13.47 35.156.99.124v-.018l-.99-.106Zm-2.35 14.063-.97-.243v.026l.97.217Zm-26.36 21.093-.02 1h.02v-1Zm-28.71-31.054-1-.032v.07l1-.038Zm16.4-33.985-.68-.729-.01.009.69.72Zm127.74-21.679.27-.963-.01-.002-.01-.002-.25.967Zm51.56 100.195.91.423v-.006l-.91-.417Zm-40.43 46.289.66.755v-.008l-.66-.747Zm-41.6 191.602.9.434v-.01l.01-.011-.91-.413ZM1429.98 781l-.43.901.01.005.01.004.41-.91Zm-14.06-39.844.91.414.01-.008v-.008l-.92-.398Zm39.26-14.648-.45.894.01.006.02.006.42-.906Zm-3.52-44.36h-17.57v2h17.57v-2Zm-16.57 1c0-23.711 4.08-45.653 12.23-65.836l-1.86-.749c-8.25 20.442-12.37 42.64-12.37 66.585h2Zm12.23-65.839c3.86-9.663 14.16-27.553 30.97-53.738l-1.69-1.08c-16.78 26.159-27.19 44.207-31.14 54.075l1.86.743Zm30.97-53.747c16.48-26.284 24.76-51.467 24.76-75.531h-2c0 23.592-8.12 48.41-24.45 74.469l1.69 1.062Zm24.76-75.531c0-3.167-.19-6.333-.59-9.499l-1.98.248c.38 3.084.57 6.168.57 9.251h2Zm-.59-9.463c-1.18-13.479-6.01-23.723-14.58-30.575-8.54-6.835-20.66-10.181-36.22-10.181v2c15.31 0 26.92 3.295 34.98 9.742 8.03 6.429 12.68 16.107 13.83 29.19l1.99-.176Zm-50.8-40.756c-10.29 0-18.71 2.177-25.17 6.622l1.13 1.648c6.04-4.149 14.02-6.27 24.04-6.27v-2Zm-25.19 6.635c-3.73 2.693-6.71 7.087-8.99 13.051-2.29 5.968-3.91 13.581-4.9 22.81l1.99.212c.97-9.13 2.57-16.557 4.78-22.307 2.2-5.754 4.99-9.76 8.29-12.145l-1.17-1.621Zm-13.88 35.843c-.78 6.24-1.56 10.879-2.33 13.944l1.94.485c.8-3.185 1.59-7.921 2.37-14.181l-1.98-.248Zm-2.33 13.97c-1.53 6.872-4.41 11.919-8.59 15.256-4.17 3.338-9.74 5.054-16.8 5.054v2c7.39 0 13.44-1.799 18.05-5.492 4.62-3.694 7.69-9.194 9.29-16.385l-1.95-.433Zm-25.37 20.311c-9-.192-15.69-2.815-20.24-7.736-4.56-4.938-7.11-12.336-7.49-22.358l-2 .077c.39 10.291 3.02 18.224 8.03 23.639 5.02 5.43 12.29 8.178 21.66 8.377l.04-1.999Zm-27.73-30.024c.38-12.195 5.7-23.287 16.1-33.295l-1.39-1.441c-10.7 10.304-16.31 21.868-16.71 34.673l2 .063Zm16.09-33.287c18.89-17.734 46.73-26.682 83.69-26.682v-2c-37.26 0-65.67 9.021-85.06 27.224l1.37 1.458Zm83.69-26.682c15.55 0 29.91 1.75 43.1 5.24l.51-1.933c-13.37-3.541-27.91-5.307-43.61-5.307v2Zm43.08 5.236c19.21 5.43 33.51 13.984 43.01 25.599 9.49 11.605 14.27 26.358 14.27 44.337h2c0-18.349-4.88-33.576-14.72-45.604-9.84-12.018-24.54-20.75-44.01-26.257l-.55 1.925Zm57.28 69.936c0 10.01-2.11 19.634-6.35 28.88l1.82.834c4.35-9.504 6.53-19.412 6.53-29.714h-2Zm-6.35 28.874c-5.37 11.518-18.71 26.831-40.19 45.965l1.33 1.494c21.5-19.147 35.11-34.693 40.68-46.613l-1.82-.846Zm-40.18 45.957c-8.99 7.817-15.65 13.89-19.97 18.212l1.41 1.414c4.28-4.271 10.9-10.308 19.88-18.116l-1.32-1.51Zm-19.97 18.212c-26.72 26.723-40.14 56.851-40.14 90.355h2c0-32.902 13.15-62.539 39.55-88.941l-1.41-1.414Zm-19.04 161.254c0 4.14-.94 8.297-2.84 12.477l1.82.827c2-4.414 3.02-8.851 3.02-13.304h-2Zm-2.83 12.456c-2.67 5.527-6.17 9.618-10.48 12.333-4.3 2.714-9.48 4.094-15.57 4.094v2c6.4 0 11.96-1.453 16.64-4.402 4.68-2.95 8.41-7.354 11.21-13.156l-1.8-.869Zm-26.05 16.427c-4.15 0-8.3-.94-12.48-2.84l-.83 1.82c4.41 2.007 8.85 3.02 13.31 3.02v-2Zm-12.46-2.831c-5.53-2.668-9.62-6.166-12.33-10.472-2.72-4.306-4.1-9.485-4.1-15.58h-2c0 6.405 1.45 11.968 4.4 16.646 2.95 4.678 7.36 8.407 13.16 11.208l.87-1.802Zm-16.43-26.052c0-4.141.94-8.297 2.84-12.477l-1.82-.828c-2 4.414-3.02 8.852-3.02 13.305h2Zm2.85-12.493c2.48-5.714 5.88-9.94 10.18-12.744 4.29-2.804 9.56-4.232 15.86-4.232v-2c-6.6 0-12.27 1.502-16.96 4.557-4.68 3.056-8.31 7.619-10.92 13.624l1.84.795Zm26.04-16.976c4.13 0 8.08.939 11.85 2.824l.9-1.789c-4.05-2.021-8.3-3.035-12.75-3.035v2Zm11.88 2.836c5.72 2.669 9.95 6.216 12.76 10.618 2.81 4.402 4.24 9.725 4.24 16.015h2c0-6.601-1.5-12.313-4.55-17.091-3.05-4.778-7.61-8.555-13.61-11.354l-.84 1.812Z" mask="url(#b)"/>
        <path fill="maroon" d="M155.75 2006c-3.3 0-5.317-1.47-6.05-4.4L46.3 1627.05l-.55-1.65c0-2.93 1.833-4.4 5.5-4.4H95.8c3.3 0 5.317 1.65 6.05 4.95l72.05 273.9c.367.73.733 1.1 1.1 1.1.733 0 1.283-.37 1.65-1.1l68.2-273.9c.733-3.3 2.75-4.95 6.05-4.95h43.45c3.3 0 5.317 1.65 6.05 4.95l72.05 274.45c.367.73.733 1.1 1.1 1.1.367 0 .733-.37 1.1-1.1l72.6-274.45c.733-3.3 2.75-4.95 6.05-4.95h41.8c1.833 0 3.117.55 3.85 1.65 1.1 1.1 1.467 2.57 1.1 4.4l-99.55 374c-.733 3.3-2.75 4.95-6.05 4.95H352.1c-3.3 0-5.317-1.65-6.05-4.95L274 1717.25c-.367-1.1-.733-1.65-1.1-1.65-.367 0-.733.55-1.1 1.65l-69.85 283.8c-.367 3.3-2.383 4.95-6.05 4.95h-40.15Zm504.311-283.8c30.067 0 53.9 8.8 71.5 26.4 17.6 17.23 26.4 40.7 26.4 70.4v181.5c0 3.67-1.833 5.5-5.5 5.5h-41.8c-3.666 0-5.5-1.83-5.5-5.5v-171.05c0-18.33-5.316-33.18-15.95-44.55-10.633-11.37-24.75-17.05-42.35-17.05-17.233 0-31.35 5.68-42.35 17.05-11 11.37-16.5 26.03-16.5 44v171.6c0 3.67-1.833 5.5-5.5 5.5h-41.8c-3.666 0-5.5-1.83-5.5-5.5v-374c0-3.67 1.834-5.5 5.5-5.5h41.8c3.667 0 5.5 1.83 5.5 5.5v124.85c0 .73.184 1.28.55 1.65.734.37 1.284.18 1.65-.55 15.767-20.17 39.05-30.25 69.85-30.25Zm266.273 288.2c-27.133 0-50.783-6.78-70.95-20.35-20.166-13.93-34.283-33.18-42.35-57.75-6.6-19.8-9.9-42.17-9.9-67.1 0-26.03 3.117-48.03 9.35-66 8.067-24.2 22.184-43.08 42.35-56.65 20.167-13.93 44.184-20.9 72.05-20.9 26.4 0 49.317 6.97 68.75 20.9 19.796 13.57 33.916 32.27 42.346 56.1 6.6 18.7 9.9 40.7 9.9 66 0 25.67-3.3 48.22-9.9 67.65-8.06 24.57-22 43.82-41.796 57.75-19.8 13.57-43.083 20.35-69.85 20.35Zm0-45.65c14.667 0 27.5-4.03 38.5-12.1 11-8.43 18.884-20.17 23.65-35.2 4.034-13.93 6.05-31.17 6.05-51.7s-1.833-37.58-5.5-51.15c-4.766-15.03-12.65-26.58-23.65-34.65-11-8.43-24.383-12.65-40.15-12.65-15.033 0-28.05 4.22-39.05 12.65-11 8.07-18.883 19.62-23.65 34.65-4.033 12.83-6.05 29.88-6.05 51.15s2.017 38.5 6.05 51.7c4.4 15.03 12.1 26.77 23.1 35.2 11.367 8.07 24.934 12.1 40.7 12.1Zm204.426-282.7c-10.26 0-18.7-3.3-25.3-9.9-6.6-6.6-9.9-15.03-9.9-25.3 0-10.27 3.3-18.7 9.9-25.3 6.6-6.6 15.04-9.9 25.3-9.9 10.27 0 18.7 3.3 25.3 9.9 6.6 6.6 9.9 15.03 9.9 25.3 0 10.27-3.3 18.7-9.9 25.3-6.6 6.6-15.03 9.9-25.3 9.9Zm-22 323.4c-3.66 0-5.5-1.83-5.5-5.5v-268.4c0-3.67 1.84-5.5 5.5-5.5h41.8c3.67 0 5.5 1.83 5.5 5.5v268.4c0 3.67-1.83 5.5-5.5 5.5h-41.8Zm210.59 3.85c-22 0-41.44-3.3-58.3-9.9-16.5-6.6-29.34-15.58-38.5-26.95-9.17-11.73-13.75-24.57-13.75-38.5v-6.05c0-3.67 1.83-5.5 5.5-5.5h39.6c3.66 0 5.5 1.83 5.5 5.5v2.75c0 10.27 5.5 19.25 16.5 26.95 11.36 7.7 25.66 11.55 42.9 11.55 16.5 0 29.88-3.48 40.15-10.45 10.26-7.33 15.4-16.5 15.4-27.5 0-10.63-4.77-18.52-14.3-23.65-9.54-5.5-24.94-11.18-46.2-17.05-20.9-5.87-38.5-11.73-52.8-17.6-13.94-6.23-25.85-14.85-35.75-25.85-9.54-11.37-14.3-25.85-14.3-43.45 0-24.57 9.53-44 28.6-58.3 19.43-14.67 45.1-22 77-22 21.26 0 39.96 3.48 56.1 10.45 16.5 6.6 29.15 15.95 37.95 28.05 8.8 12.1 13.2 25.67 13.2 40.7v1.65c0 3.67-1.84 5.5-5.5 5.5h-38.5c-3.67 0-5.5-1.83-5.5-5.5v-1.65c0-10.63-5.32-19.43-15.95-26.4-10.27-7.33-24.39-11-42.35-11-16.14 0-29.34 3.12-39.6 9.35-9.9 6.23-14.85 14.67-14.85 25.3s4.76 18.7 14.3 24.2c9.9 5.5 25.66 11.37 47.3 17.6 21.26 5.87 38.86 11.73 52.8 17.6 14.3 5.5 26.4 13.93 36.3 25.3 9.9 11 14.85 25.48 14.85 43.45 0 24.93-9.9 44.73-29.7 59.4-19.44 14.67-45.47 22-78.1 22Zm413.22-348.15c0 3.67-1.84 5.5-5.5 5.5h-194.7c-1.47 0-2.2.73-2.2 2.2v118.25c0 1.47.73 2.2 2.2 2.2h133.65c3.66 0 5.5 1.83 5.5 5.5v34.65c0 3.67-1.84 5.5-5.5 5.5h-133.65c-1.47 0-2.2.73-2.2 2.2v163.35c0 3.67-1.84 5.5-5.5 5.5h-41.8c-3.67 0-5.5-1.83-5.5-5.5v-374c0-3.67 1.83-5.5 5.5-5.5h244.2c3.66 0 5.5 1.83 5.5 5.5v34.65Zm144.01 62.15c11.74 0 22.37 2.38 31.9 7.15 2.57 1.1 3.49 3.3 2.75 6.6l-8.8 41.25c-.36 3.3-2.56 4.4-6.6 3.3-6.23-2.57-13.56-3.85-22-3.85l-7.7.55c-17.23.73-31.53 6.78-42.9 18.15-11 11-16.5 25.48-16.5 43.45v160.6c0 3.67-1.83 5.5-5.5 5.5h-41.8c-3.66 0-5.5-1.83-5.5-5.5v-268.95c0-3.67 1.84-5.5 5.5-5.5h41.8c3.67 0 5.5 1.83 5.5 5.5v29.15c0 1.1.19 1.83.55 2.2.74 0 1.29-.37 1.65-1.1 16.5-25.67 39.05-38.5 67.65-38.5Zm285.61 107.8c1.47 15.03 2.02 31.9 1.65 50.6 0 3.67-1.83 5.5-5.5 5.5h-175.45c-1.47 0-2.2.73-2.2 2.2 0 12.47 1.1 22 3.3 28.6 4.03 14.67 12.1 26.22 24.2 34.65 12.47 8.07 28.05 12.1 46.75 12.1 27.13 0 48.03-11.18 62.7-33.55 1.83-3.67 4.22-4.22 7.15-1.65l31.35 20.9c2.57 2.2 3.12 4.58 1.65 7.15-10.27 16.5-24.93 29.52-44 39.05-18.7 9.53-39.97 14.3-63.8 14.3-26.77 0-49.32-5.87-67.65-17.6-18.33-11.73-32.08-28.42-41.25-50.05-8.8-21.63-13.2-47.85-13.2-78.65 0-26.77 2.02-47.12 6.05-61.05 6.6-25.3 19.8-45.28 39.6-59.95 19.8-14.67 43.82-22 72.05-22 37.03 0 64.72 9.35 83.05 28.05 18.33 18.33 29.52 45.47 33.55 81.4Zm-116.6-63.8c-15.77 0-28.78 4.03-39.05 12.1-10.27 7.7-17.23 18.15-20.9 31.35-2.57 8.07-4.22 18.33-4.95 30.8 0 1.47.73 2.2 2.2 2.2h125.95c1.47 0 2.2-.73 2.2-2.2-.73-12.1-1.83-21.08-3.3-26.95-3.67-14.3-11-25.67-22-34.1-10.63-8.8-24.02-13.2-40.15-13.2Zm266.34-45.65c22.36 0 41.8 4.03 58.3 12.1 16.86 7.7 29.7 18.7 38.5 33 9.16 13.93 13.75 29.88 13.75 47.85v185.9c0 3.67-1.84 5.5-5.5 5.5h-41.8c-3.67 0-5.5-1.83-5.5-5.5v-19.8c0-1.83-.92-2.2-2.75-1.1-9.54 9.9-21.27 17.6-35.2 23.1-13.57 5.13-28.79 7.7-45.65 7.7-27.14 0-49.69-6.78-67.65-20.35-17.6-13.93-26.4-34.83-26.4-62.7 0-28.6 9.9-50.97 29.7-67.1 20.16-16.5 48.21-24.75 84.15-24.75h61.6c1.46 0 2.2-.73 2.2-2.2v-14.85c0-16.13-4.77-28.6-14.3-37.4-9.17-9.17-23.29-13.75-42.35-13.75-15.4 0-28.05 3.12-37.95 9.35-9.54 5.87-15.4 13.93-17.6 24.2-1.1 3.67-3.3 5.32-6.6 4.95l-44.55-6.05c-3.67-.73-5.32-2.2-4.95-4.4 2.93-21.63 14.48-39.23 34.65-52.8 20.16-13.93 45.46-20.9 75.9-20.9Zm-14.3 244.2c19.43 0 36.3-5.13 50.6-15.4 14.3-10.27 21.45-23.28 21.45-39.05v-32.45c0-1.47-.74-2.2-2.2-2.2h-51.7c-21.64 0-38.87 4.22-51.7 12.65-12.84 8.43-19.25 20.17-19.25 35.2 0 13.57 4.76 23.83 14.3 30.8 9.9 6.97 22.73 10.45 38.5 10.45Zm183.48 40.15c-3.67 0-5.5-1.83-5.5-5.5v-374c0-3.67 1.83-5.5 5.5-5.5h41.8c3.66 0 5.5 1.83 5.5 5.5v211.75c0 .73.36 1.28 1.1 1.65.73.37 1.28.18 1.65-.55l101.75-110.55c1.46-1.83 3.66-2.75 6.6-2.75h48.95c2.2 0 3.48.73 3.85 2.2.73 1.1.36 2.57-1.1 4.4l-70.95 81.95c-.74 1.47-.92 2.57-.55 3.3l84.15 181.5.55 2.2c0 2.93-1.65 4.4-4.95 4.4h-44c-2.94 0-4.95-1.47-6.05-4.4l-65.45-149.6c-.74-1.83-1.65-2.02-2.75-.55l-51.7 57.2c-.74 1.47-1.1 2.38-1.1 2.75v89.1c0 3.67-1.84 5.5-5.5 5.5h-41.8Zm352.48 3.3c-22 0-41.43-3.3-58.3-9.9-16.5-6.6-29.33-15.58-38.5-26.95-9.16-11.73-13.75-24.57-13.75-38.5v-6.05c0-3.67 1.84-5.5 5.5-5.5h39.6c3.67 0 5.5 1.83 5.5 5.5v2.75c0 10.27 5.5 19.25 16.5 26.95 11.37 7.7 25.67 11.55 42.9 11.55 16.5 0 29.89-3.48 40.15-10.45 10.27-7.33 15.4-16.5 15.4-27.5 0-10.63-4.76-18.52-14.3-23.65-9.53-5.5-24.93-11.18-46.2-17.05-20.9-5.87-38.5-11.73-52.8-17.6-13.93-6.23-25.85-14.85-35.75-25.85-9.53-11.37-14.3-25.85-14.3-43.45 0-24.57 9.54-44 28.6-58.3 19.44-14.67 45.1-22 77-22 21.27 0 39.97 3.48 56.1 10.45 16.5 6.6 29.15 15.95 37.95 28.05 8.8 12.1 13.2 25.67 13.2 40.7v1.65c0 3.67-1.83 5.5-5.5 5.5h-38.5c-3.66 0-5.5-1.83-5.5-5.5v-1.65c0-10.63-5.31-19.43-15.95-26.4-10.26-7.33-24.38-11-42.35-11-16.13 0-29.33 3.12-39.6 9.35-9.9 6.23-14.85 14.67-14.85 25.3s4.77 18.7 14.3 24.2c9.9 5.5 25.67 11.37 47.3 17.6 21.27 5.87 38.87 11.73 52.8 17.6 14.3 5.5 26.4 13.93 36.3 25.3 9.9 11 14.85 25.48 14.85 43.45 0 24.93-9.9 44.73-29.7 59.4-19.43 14.67-45.46 22-78.1 22Z"/>
    </g>
    <defs>
        <clipPath id="a">
            <path fill="#fff" d="M0 0h3000v2000H0z"/>
        </clipPath>
    </defs>
</svg>